<svg width="150" height="142" viewBox="0 0 150 142" fill="none" xmlns="http://www.w3.org/2000/svg">
<g filter="url(#filter0_bdd_1347_6139)">
<path d="M53.4375 84.9692L69.0625 61.8242H85.1562L74.8437 77.7601H88.75L54.2187 109L65.3125 84.9692H53.4375Z" fill="url(#paint0_linear_1347_6139)"/>
<path d="M69.5939 62.8242H83.318L74.0042 77.2168L73.0055 78.7601H74.8437H86.154L57.1791 104.973L66.2204 85.3884L66.8756 83.9692H65.3125H55.3191L69.5939 62.8242Z" stroke="url(#paint1_linear_1347_6139)" stroke-width="2"/>
</g>
<mask id="path-3-inside-1_1347_6139" fill="white">
<path fill-rule="evenodd" clip-rule="evenodd" d="M115.176 63.4311C115.213 63.4314 115.251 63.4316 115.289 63.4316C120.652 63.4316 125 59.9123 125 55.571C125 51.2297 120.652 47.7104 115.289 47.7104C115.251 47.7104 115.213 47.7105 115.176 47.7109V47.7104H112.667C112.758 47.1724 112.805 46.6232 112.805 46.0651C112.805 39.4017 106.131 34 97.8991 34C89.6671 34 82.9937 39.4017 82.9937 46.0651C82.9937 46.6939 83.0531 47.3114 83.1676 47.9142C82.4587 47.7809 81.7201 47.7104 80.9611 47.7104C75.5978 47.7104 71.2499 51.2297 71.2499 55.571C71.2499 59.9123 75.5978 63.4316 80.9611 63.4316C80.9989 63.4316 81.0367 63.4314 81.0745 63.4311L81.074 63.4316H115.176V63.4311Z"/>
</mask>
<path fill-rule="evenodd" clip-rule="evenodd" d="M115.176 63.4311C115.213 63.4314 115.251 63.4316 115.289 63.4316C120.652 63.4316 125 59.9123 125 55.571C125 51.2297 120.652 47.7104 115.289 47.7104C115.251 47.7104 115.213 47.7105 115.176 47.7109V47.7104H112.667C112.758 47.1724 112.805 46.6232 112.805 46.0651C112.805 39.4017 106.131 34 97.8991 34C89.6671 34 82.9937 39.4017 82.9937 46.0651C82.9937 46.6939 83.0531 47.3114 83.1676 47.9142C82.4587 47.7809 81.7201 47.7104 80.9611 47.7104C75.5978 47.7104 71.2499 51.2297 71.2499 55.571C71.2499 59.9123 75.5978 63.4316 80.9611 63.4316C80.9989 63.4316 81.0367 63.4314 81.0745 63.4311L81.074 63.4316H115.176V63.4311Z" fill="url(#paint2_linear_1347_6139)"/>
<path d="M115.176 63.4311L115.194 61.4312C114.661 61.4262 114.147 61.6348 113.768 62.0103C113.389 62.3859 113.176 62.8974 113.176 63.4311H115.176ZM115.176 47.7109H113.176C113.176 48.2445 113.389 48.756 113.768 49.1316C114.147 49.5072 114.661 49.7157 115.194 49.7108L115.176 47.7109ZM115.176 47.7104H117.176C117.176 46.6058 116.28 45.7104 115.176 45.7104V47.7104ZM112.667 47.7104L110.695 47.3782C110.597 47.9585 110.76 48.5524 111.14 49.0018C111.52 49.4512 112.079 49.7104 112.667 49.7104V47.7104ZM83.1676 47.9142L82.798 49.8797C83.4478 50.0019 84.116 49.7951 84.5831 49.3271C85.0503 48.8591 85.2559 48.1904 85.1325 47.5408L83.1676 47.9142ZM81.0745 63.4311L82.5055 64.8283C83.07 64.2502 83.2311 63.3893 82.914 62.6462C82.597 61.903 81.8639 61.4237 81.056 61.4312L81.0745 63.4311ZM81.074 63.4316L79.643 62.0344C79.0809 62.6101 78.9185 63.4665 79.2308 64.208C79.5432 64.9495 80.2694 65.4316 81.074 65.4316V63.4316ZM115.176 63.4316V65.4316C116.28 65.4316 117.176 64.5362 117.176 63.4316H115.176ZM115.157 65.431C115.201 65.4314 115.245 65.4316 115.289 65.4316V61.4316C115.257 61.4316 115.226 61.4315 115.194 61.4312L115.157 65.431ZM115.289 65.4316C121.341 65.4316 127 61.3911 127 55.571H123C123 58.4335 119.963 61.4316 115.289 61.4316V65.4316ZM127 55.571C127 49.7509 121.341 45.7104 115.289 45.7104V49.7104C119.963 49.7104 123 52.7085 123 55.571H127ZM115.289 45.7104C115.245 45.7104 115.201 45.7106 115.157 45.711L115.194 49.7108C115.226 49.7105 115.257 49.7104 115.289 49.7104V45.7104ZM113.176 47.7104V47.7109H117.176V47.7104H113.176ZM112.667 49.7104H115.176V45.7104H112.667V49.7104ZM114.639 48.0426C114.748 47.3957 114.805 46.7354 114.805 46.0651H110.805C110.805 46.511 110.767 46.9491 110.695 47.3782L114.639 48.0426ZM114.805 46.0651C114.805 37.9229 106.82 32 97.8991 32V36C105.442 36 110.805 40.8805 110.805 46.0651H114.805ZM97.8991 32C88.9782 32 80.9937 37.9229 80.9937 46.0651H84.9937C84.9937 40.8805 90.3559 36 97.8991 36V32ZM80.9937 46.0651C80.9937 46.8203 81.0651 47.5628 81.2028 48.2875L85.1325 47.5408C85.0411 47.0599 84.9937 46.5674 84.9937 46.0651H80.9937ZM83.5373 45.9486C82.7063 45.7923 81.8439 45.7104 80.9611 45.7104V49.7104C81.5963 49.7104 82.2112 49.7694 82.798 49.8797L83.5373 45.9486ZM80.9611 45.7104C74.9089 45.7104 69.2499 49.7509 69.2499 55.571H73.2499C73.2499 52.7085 76.2866 49.7104 80.9611 49.7104V45.7104ZM69.2499 55.571C69.2499 61.3911 74.9089 65.4316 80.9611 65.4316V61.4316C76.2866 61.4316 73.2499 58.4335 73.2499 55.571H69.2499ZM80.9611 65.4316C81.0051 65.4316 81.0491 65.4314 81.093 65.431L81.056 61.4312C81.0244 61.4314 80.9927 61.4316 80.9611 61.4316V65.4316ZM82.505 64.8288L82.5055 64.8283L79.6435 62.0339L79.643 62.0344L82.505 64.8288ZM115.176 61.4316H81.074V65.4316H115.176V61.4316ZM113.176 63.4311V63.4316H117.176V63.4311H113.176Z" fill="url(#paint3_linear_1347_6139)" mask="url(#path-3-inside-1_1347_6139)"/>
<mask id="path-5-inside-2_1347_6139" fill="white">
<path fill-rule="evenodd" clip-rule="evenodd" d="M91.7812 74.7238C91.8333 74.7243 91.8853 74.7245 91.9375 74.7245C99.3588 74.7245 105.375 69.8547 105.375 63.8476C105.375 57.8405 99.3588 52.9707 91.9375 52.9707C91.8853 52.9707 91.8333 52.9709 91.7812 52.9714V52.9707H88.3099C88.4353 52.2265 88.5 51.4668 88.5 50.6948C88.5 41.4745 79.2659 34 67.875 34C56.4841 34 47.25 41.4745 47.25 50.6948C47.25 51.5645 47.3322 52.4188 47.4906 53.2527C46.5097 53.0682 45.4877 52.9707 44.4375 52.9707C37.0162 52.9707 31 57.8405 31 63.8476C31 69.8547 37.0162 74.7245 44.4375 74.7245C44.4899 74.7245 44.5422 74.7243 44.5945 74.7238L44.5938 74.7245H91.7812V74.7238Z"/>
</mask>
<path fill-rule="evenodd" clip-rule="evenodd" d="M91.7812 74.7238C91.8333 74.7243 91.8853 74.7245 91.9375 74.7245C99.3588 74.7245 105.375 69.8547 105.375 63.8476C105.375 57.8405 99.3588 52.9707 91.9375 52.9707C91.8853 52.9707 91.8333 52.9709 91.7812 52.9714V52.9707H88.3099C88.4353 52.2265 88.5 51.4668 88.5 50.6948C88.5 41.4745 79.2659 34 67.875 34C56.4841 34 47.25 41.4745 47.25 50.6948C47.25 51.5645 47.3322 52.4188 47.4906 53.2527C46.5097 53.0682 45.4877 52.9707 44.4375 52.9707C37.0162 52.9707 31 57.8405 31 63.8476C31 69.8547 37.0162 74.7245 44.4375 74.7245C44.4899 74.7245 44.5422 74.7243 44.5945 74.7238L44.5938 74.7245H91.7812V74.7238Z" fill="url(#paint4_linear_1347_6139)"/>
<path d="M91.7812 74.7238L91.7997 72.7239C91.2661 72.7189 90.7526 72.9275 90.3736 73.303C89.9945 73.6786 89.7812 74.1901 89.7812 74.7238H91.7812ZM91.7812 52.9714H89.7812C89.7812 53.5051 89.9945 54.0166 90.3736 54.3922C90.7526 54.7677 91.2661 54.9763 91.7997 54.9713L91.7812 52.9714ZM91.7812 52.9707H93.7812C93.7812 51.8661 92.8858 50.9707 91.7812 50.9707V52.9707ZM88.3099 52.9707L86.3377 52.6386C86.24 53.2189 86.4028 53.8128 86.7828 54.2622C87.1628 54.7115 87.7214 54.9707 88.3099 54.9707V52.9707ZM47.4906 53.2527L47.1209 55.2182C47.7708 55.3404 48.439 55.1336 48.9061 54.6656C49.3732 54.1976 49.5788 53.529 49.4554 52.8794L47.4906 53.2527ZM44.5945 74.7238L46.0282 76.1181C46.591 75.5394 46.7508 74.6792 46.4332 73.937C46.1157 73.1949 45.3831 72.7164 44.5759 72.7239L44.5945 74.7238ZM44.5938 74.7245L43.16 73.3301C42.5995 73.9064 42.4386 74.7622 42.7514 75.5027C43.0642 76.2432 43.7899 76.7245 44.5938 76.7245V74.7245ZM91.7812 74.7245V76.7245C92.8858 76.7245 93.7812 75.8291 93.7812 74.7245H91.7812ZM91.7628 76.7237C91.8209 76.7242 91.8792 76.7245 91.9375 76.7245V72.7245C91.8915 72.7245 91.8456 72.7243 91.7997 72.7239L91.7628 76.7237ZM91.9375 76.7245C100.048 76.7245 107.375 71.3335 107.375 63.8476H103.375C103.375 68.3759 98.67 72.7245 91.9375 72.7245V76.7245ZM107.375 63.8476C107.375 56.3617 100.048 50.9707 91.9375 50.9707V54.9707C98.67 54.9707 103.375 59.3193 103.375 63.8476H107.375ZM91.9375 50.9707C91.8792 50.9707 91.8209 50.971 91.7628 50.9715L91.7997 54.9713C91.8456 54.9709 91.8915 54.9707 91.9375 54.9707V50.9707ZM89.7812 52.9707V52.9714H93.7812V52.9707H89.7812ZM88.3099 54.9707H91.7812V50.9707H88.3099V54.9707ZM90.2822 53.3028C90.4258 52.4498 90.5 51.5789 90.5 50.6948H86.5C86.5 51.3546 86.4447 52.0033 86.3377 52.6386L90.2822 53.3028ZM90.5 50.6948C90.5 39.9957 79.9547 32 67.875 32V36C78.577 36 86.5 42.9533 86.5 50.6948H90.5ZM67.875 32C55.7953 32 45.25 39.9957 45.25 50.6948H49.25C49.25 42.9533 57.173 36 67.875 36V32ZM45.25 50.6948C45.25 51.691 45.3442 52.6702 45.5257 53.6259L49.4554 52.8794C49.3202 52.1674 49.25 51.4381 49.25 50.6948H45.25ZM47.8602 51.2871C46.7573 51.0797 45.6115 50.9707 44.4375 50.9707V54.9707C45.3639 54.9707 46.2622 55.0567 47.1209 55.2182L47.8602 51.2871ZM44.4375 50.9707C36.3273 50.9707 29 56.3617 29 63.8476H33C33 59.3193 37.705 54.9707 44.4375 54.9707V50.9707ZM29 63.8476C29 71.3335 36.3273 76.7245 44.4375 76.7245V72.7245C37.705 72.7245 33 68.3759 33 63.8476H29ZM44.4375 76.7245C44.4961 76.7245 44.5546 76.7242 44.613 76.7237L44.5759 72.7239C44.5298 72.7243 44.4837 72.7245 44.4375 72.7245V76.7245ZM46.0275 76.1189L46.0282 76.1181L43.1607 73.3294L43.16 73.3301L46.0275 76.1189ZM91.7812 72.7245H44.5938V76.7245H91.7812V72.7245ZM89.7812 74.7238V74.7245H93.7812V74.7238H89.7812Z" fill="url(#paint5_linear_1347_6139)" mask="url(#path-5-inside-2_1347_6139)"/>
<defs>
<filter id="filter0_bdd_1347_6139" x="-17.5625" y="0.824219" width="167.312" height="173.176" filterUnits="userSpaceOnUse" color-interpolation-filters="sRGB">
<feFlood flood-opacity="0" result="BackgroundImageFix"/>
<feGaussianBlur in="BackgroundImageFix" stdDeviation="7"/>
<feComposite in2="SourceAlpha" operator="in" result="effect1_backgroundBlur_1347_6139"/>
<feColorMatrix in="SourceAlpha" type="matrix" values="0 0 0 0 0 0 0 0 0 0 0 0 0 0 0 0 0 0 127 0" result="hardAlpha"/>
<feOffset dx="-21" dy="15"/>
<feGaussianBlur stdDeviation="25"/>
<feComposite in2="hardAlpha" operator="out"/>
<feColorMatrix type="matrix" values="0 0 0 0 0.113438 0 0 0 0 0.148981 0 0 0 0 0.275 0 0 0 0.25 0"/>
<feBlend mode="normal" in2="effect1_backgroundBlur_1347_6139" result="effect2_dropShadow_1347_6139"/>
<feColorMatrix in="SourceAlpha" type="matrix" values="0 0 0 0 0 0 0 0 0 0 0 0 0 0 0 0 0 0 127 0" result="hardAlpha"/>
<feOffset/>
<feGaussianBlur stdDeviation="30.5"/>
<feComposite in2="hardAlpha" operator="out"/>
<feColorMatrix type="matrix" values="0 0 0 0 1 0 0 0 0 0.721569 0 0 0 0 0.00392157 0 0 0 0.49 0"/>
<feBlend mode="normal" in2="effect2_dropShadow_1347_6139" result="effect3_dropShadow_1347_6139"/>
<feBlend mode="normal" in="SourceGraphic" in2="effect3_dropShadow_1347_6139" result="shape"/>
</filter>
<linearGradient id="paint0_linear_1347_6139" x1="74.5312" y1="64.6067" x2="69.3219" y2="92.5374" gradientUnits="userSpaceOnUse">
<stop stop-color="#FF4D00"/>
<stop offset="1" stop-color="#FFB800"/>
</linearGradient>
<linearGradient id="paint1_linear_1347_6139" x1="64.0625" y1="91.6724" x2="73.9908" y2="65.389" gradientUnits="userSpaceOnUse">
<stop stop-color="white"/>
<stop offset="1" stop-color="white" stop-opacity="0"/>
</linearGradient>
<linearGradient id="paint2_linear_1347_6139" x1="100.625" y1="34.8853" x2="100.625" y2="66.7572" gradientUnits="userSpaceOnUse">
<stop stop-color="white"/>
<stop offset="1" stop-color="white" stop-opacity="0"/>
</linearGradient>
<linearGradient id="paint3_linear_1347_6139" x1="98.125" y1="34" x2="98.125" y2="63.4316" gradientUnits="userSpaceOnUse">
<stop stop-color="white"/>
<stop offset="1" stop-color="white" stop-opacity="0"/>
</linearGradient>
<linearGradient id="paint4_linear_1347_6139" x1="68.1875" y1="20.9732" x2="68.1875" y2="80.4158" gradientUnits="userSpaceOnUse">
<stop stop-color="white"/>
<stop offset="1" stop-color="white" stop-opacity="0"/>
</linearGradient>
<linearGradient id="paint5_linear_1347_6139" x1="68.1875" y1="34" x2="68.1875" y2="74.7245" gradientUnits="userSpaceOnUse">
<stop stop-color="white"/>
<stop offset="1" stop-color="white" stop-opacity="0"/>
</linearGradient>
</defs>
</svg>
